<?xml version="1.0" encoding="utf-8"?>
<!-- Generator: Adobe Illustrator 23.0.0, SVG Export Plug-In . SVG Version: 6.00 Build 0)  -->
<svg version="1.1" id="Layer_1" xmlns="http://www.w3.org/2000/svg" xmlns:xlink="http://www.w3.org/1999/xlink" x="0px" y="0px"
	 viewBox="0 0 540 370" style="enable-background:new 0 0 540 370;" xml:space="preserve">
<style type="text/css">
	.st0{fill-rule:evenodd;clip-rule:evenodd;fill:#FFFFFF;}
	.st1{fill-rule:evenodd;clip-rule:evenodd;fill:url(#SVGID_1_);}
	.st2{fill:#F2F2F2;}
	.st3{fill:#6C63FF;}
	.st4{fill:#3F3D56;}
	.st5{opacity:0.1;enable-background:new    ;}
</style>
<g>
	<path class="st0" d="M56.1,38.8h434.3v297.6H56.1V38.8z"/>
	
		<linearGradient id="SVGID_1_" gradientUnits="userSpaceOnUse" x1="-34.8313" y1="580.0522" x2="-34.0271" y2="579.2479" gradientTransform="matrix(540 0 0 -124.268 18865 72148.5391)">
		<stop  offset="0" style="stop-color:#F8F9FB"/>
		<stop  offset="1" style="stop-color:#FFFFFF"/>
	</linearGradient>
	<path class="st1" d="M56.1,66.6h434.3v99.9H56.1V66.6z"/>
</g>
<circle class="st2" cx="170.3" cy="257.1" r="19.5"/>
<circle class="st3" cx="173.4" cy="254.3" r="19.5"/>
<rect x="189.1" y="232.7" class="st4" width="241.2" height="0.7"/>
<path class="st4" d="M314,91.6h-85.6v-1.8h-38.8v1.8h-86c-3.2,0-5.8,2.6-5.8,5.8c0,0,0,0,0,0v117.2c0,3.2,2.6,5.8,5.8,5.8H314
	c3.2,0,5.8-2.6,5.8-5.8V97.4C319.8,94.2,317.2,91.6,314,91.6L314,91.6z"/>
<rect x="105.6" y="101.8" class="st3" width="206.4" height="116.4"/>
<circle class="st3" cx="208.7" cy="96.5" r="2.1"/>
<polygon class="st5" points="253,218.2 105.6,218.2 105.6,101.8 "/>
<circle class="st2" cx="137.9" cy="189.7" r="19.8"/>
<rect x="256.8" y="164.6" class="st4" width="19.3" height="4"/>
<rect x="233.5" y="133.2" class="st4" width="65.9" height="1.7"/>
<rect x="233.5" y="138.7" class="st4" width="65.9" height="1.7"/>
<rect x="233.5" y="144.2" class="st4" width="65.9" height="1.7"/>
<rect x="233.5" y="149.6" class="st4" width="65.9" height="1.7"/>
<rect x="233.5" y="155.1" class="st4" width="65.9" height="1.7"/>
<rect x="291.4" y="104.2" class="st2" width="8.1" height="8.1"/>
<path class="st4" d="M303.2,116h-9.8v-9.8h9.8V116z M293.8,115.5h8.9v-8.9h-8.9V115.5z"/>
<path class="st4" d="M325.6,216.1h-20.1v-1.5c0-0.2-0.1-0.3-0.3-0.3l0,0h-6.9c-0.2,0-0.3,0.1-0.3,0.3l0,0v1.5h-4.3v-1.5
	c0-0.2-0.1-0.3-0.3-0.3h0h-6.9c-0.2,0-0.3,0.1-0.3,0.3l0,0v1.5h-4.3v-1.5c0-0.2-0.1-0.3-0.3-0.3l0,0h-6.9c-0.2,0-0.3,0.1-0.3,0.3
	l0,0v1.5h-4.3v-1.5c0-0.2-0.1-0.3-0.3-0.3l0,0h-6.9c-0.2,0-0.3,0.1-0.3,0.3l0,0v1.5h-4.3v-1.5c0-0.2-0.1-0.3-0.3-0.3l0,0h-6.9
	c-0.2,0-0.3,0.1-0.3,0.3v0v1.5h-4.3v-1.5c0-0.2-0.1-0.3-0.3-0.3l0,0h-6.9c-0.2,0-0.3,0.1-0.3,0.3l0,0v1.5h-4.3v-1.5
	c0-0.2-0.1-0.3-0.3-0.3l0,0h-54.1c-0.2,0-0.3,0.1-0.3,0.3l0,0v1.5h-4.3v-1.5c0-0.2-0.1-0.3-0.3-0.3h0h-6.9c-0.2,0-0.3,0.1-0.3,0.3v0
	v1.5h-4.3v-1.5c0-0.2-0.1-0.3-0.3-0.3l0,0h-6.9c-0.2,0-0.3,0.1-0.3,0.3c0,0,0,0,0,0v1.5h-4.3v-1.5c0-0.2-0.1-0.3-0.3-0.3
	c0,0,0,0,0,0h-6.9c-0.2,0-0.3,0.1-0.3,0.3l0,0v1.5h-4.3v-1.5c0-0.2-0.1-0.3-0.3-0.3c0,0,0,0,0,0h-6.9c-0.2,0-0.3,0.1-0.3,0.3
	c0,0,0,0,0,0v1.5h-4.3v-1.5c0-0.2-0.1-0.3-0.3-0.3c0,0,0,0,0,0h-6.9c-0.2,0-0.3,0.1-0.3,0.3c0,0,0,0,0,0v1.5h-4.3v-1.5
	c0-0.2-0.1-0.3-0.3-0.3c0,0,0,0,0,0h-6.9c-0.2,0-0.3,0.1-0.3,0.3v0v1.5H96c-3.8,0-6.9,3.1-6.9,6.9v3.1c0,3.8,3.1,6.9,6.9,6.9h229.7
	c3.8,0,6.9-3.1,6.9-6.9V223C332.5,219.2,329.4,216.1,325.6,216.1z"/>
<path class="st4" d="M142.7,202.1c-13.8,0-25-11.2-25-25s11.2-25,25-25c13.8,0,25,11.2,25,25C167.7,190.9,156.5,202.1,142.7,202.1z
	 M142.7,152.7c-13.4,0-24.3,10.9-24.3,24.3s10.9,24.3,24.3,24.3c13.4,0,24.3-10.9,24.3-24.3C167.1,163.6,156.2,152.7,142.7,152.7z"
	/>
<rect x="281.9" y="96.1" class="st4" width="83.9" height="0.7"/>
<rect x="222.7" y="269.9" class="st4" width="241.2" height="0.7"/>
<rect x="152.4" y="300.1" class="st4" width="83.9" height="0.7"/>
<rect x="244" y="266.4" class="st3" width="9.2" height="9.2"/>
<path class="st4" d="M258.8,270.3h-11.2v-11.2h11.2V270.3z M248.1,269.9h10.2v-10.2h-10.2V269.9z"/>
<rect x="350.9" y="92.7" class="st3" width="9.2" height="9.2"/>
<path class="st4" d="M365.7,96.6h-11.2V85.4h11.2V96.6z M355,96.1h10.2V85.9H355V96.1z"/>
<rect x="443.7" y="266.4" class="st3" width="9.2" height="9.2"/>
<path class="st4" d="M458.5,270.3h-11.2v-11.2h11.2V270.3z M447.8,269.9H458v-10.2h-10.2V269.9z"/>
<path class="st4" d="M436.9,161.8h-0.8v-21.4c0-6.9-5.6-12.4-12.4-12.4h0h-45.4c-6.9,0-12.4,5.6-12.4,12.4c0,0,0,0,0,0v117.6
	c0,6.9,5.6,12.4,12.4,12.4c0,0,0,0,0,0h45.4c6.9,0,12.4-5.6,12.4-12.4c0,0,0,0,0,0V177h0.8L436.9,161.8z"/>
<path class="st3" d="M433.4,141v117.4c0,5.1-4.1,9.3-9.3,9.3h-45.6c-5.1,0-9.3-4.2-9.3-9.3V141c0-5.1,4.1-9.3,9.3-9.3h5.5
	c-0.9,2.3,0.2,4.8,2.4,5.7c0.5,0.2,1.1,0.3,1.7,0.3h26c2.4,0,4.4-2,4.4-4.4c0-0.6-0.1-1.1-0.3-1.7h5.9
	C429.3,131.8,433.4,135.9,433.4,141z"/>
<rect x="394.6" y="209.2" class="st4" width="13.6" height="4"/>
<rect x="378.1" y="177.8" class="st4" width="46.5" height="1.7"/>
<rect x="378.1" y="183.3" class="st4" width="46.5" height="1.7"/>
<rect x="378.1" y="188.8" class="st4" width="46.5" height="1.7"/>
<rect x="378.1" y="194.3" class="st4" width="46.5" height="1.7"/>
<rect x="378.1" y="199.7" class="st4" width="46.5" height="1.7"/>
<rect x="394.9" y="154.9" class="st2" width="8.1" height="8.1"/>
<path class="st4" d="M398,156.9v9.8h9.8v-9.8H398z M407.4,166.3h-8.9v-8.9h8.9V166.3z"/>
<path class="st5" d="M433.4,245.9v12.5c0,5.1-4.1,9.3-9.3,9.3h-45.6c-5.1,0-9.3-4.2-9.3-9.3v-63.2l38.5,30.4l0.7,0.5l7.2,5.6
	l0.7,0.5L433.4,245.9z"/>
<circle class="st2" cx="397.4" cy="249.5" r="14.4"/>
<path class="st4" d="M194.4,300.8c-15.8,0-28.6-12.8-28.6-28.6c0-15.8,12.8-28.6,28.6-28.6s28.6,12.8,28.6,28.6
	C223,288,210.2,300.8,194.4,300.8z M194.4,244.2c-15.4,0-28,12.5-28,28c0,15.4,12.5,28,28,28s28-12.5,28-28
	C222.3,256.7,209.8,244.2,194.4,244.2z"/>
<path class="st4" d="M401.7,260.6c-10,0-18.1-8.1-18.1-18.1c0-10,8.1-18.1,18.1-18.1c10,0,18.1,8.1,18.1,18.1
	C419.7,252.5,411.7,260.6,401.7,260.6z M401.7,225.1c-9.6,0-17.4,7.8-17.4,17.4S392,260,401.7,260s17.4-7.8,17.4-17.4l0,0
	C419.1,232.9,411.3,225.1,401.7,225.1z"/>
</svg>
