<?xml version="1.0" encoding="utf-8"?>
<!-- Generator: Adobe Illustrator 23.0.0, SVG Export Plug-In . SVG Version: 6.00 Build 0)  -->
<svg version="1.1" id="Layer_1" xmlns="http://www.w3.org/2000/svg" xmlns:xlink="http://www.w3.org/1999/xlink" x="0px" y="0px"
	 viewBox="0 0 538 380" style="enable-background:new 0 0 538 380;" xml:space="preserve">
<style type="text/css">
	.st0{fill-rule:evenodd;clip-rule:evenodd;fill:#FFFFFF;}
	.st1{fill:#E6E6E6;}
	.st2{fill:#FFFFFF;}
	.st3{fill:#6C63FF;}
	.st4{fill:#3F3D56;}
	.st5{fill:#A0616A;}
	.st6{fill:#2F2E41;}
	.st7{fill:#575A89;}
	.st8{fill:#FFB8B8;}
	.st9{fill:#D0CDE1;}
	.st10{opacity:0.2;enable-background:new    ;}
</style>
<path class="st0" d="M0,0h538v380H0V0z"/>
<rect x="133.3" y="63.6" class="st1" width="373.8" height="239.4"/>
<rect x="166.4" y="95.8" class="st2" width="134.9" height="138.7"/>
<rect x="351.8" y="98.5" class="st2" width="134.9" height="168.4"/>
<ellipse class="st1" cx="484.9" cy="317" rx="24.2" ry="3.5"/>
<ellipse class="st1" cx="243.2" cy="317.1" rx="24.2" ry="3.5"/>
<ellipse class="st1" cx="91.6" cy="313.6" rx="55.5" ry="2.7"/>
<rect x="133.1" y="63.4" class="st3" width="373.8" height="15.9"/>
<circle class="st1" cx="144.9" cy="71.6" r="3"/>
<circle class="st1" cx="156.1" cy="71.6" r="3"/>
<circle class="st1" cx="167.3" cy="71.6" r="3"/>
<path class="st4" d="M457,143.6h-0.8v-22.4c0-7.1-5.8-12.9-12.9-12.9l0,0h-47.5c-7.1,0-12.9,5.8-12.9,12.9l0,0v122.8
	c0,7.1,5.8,12.9,12.9,12.9l0,0h47.5c7.1,0,12.9-5.8,12.9-12.9l0,0v-84.5h0.8V143.6z"/>
<path class="st2" d="M443.1,111.7h-6.2c1,2.3-0.2,5.1-2.5,6c-0.6,0.2-1.2,0.3-1.7,0.3h-27.2c-2.6,0-4.6-2.1-4.6-4.6
	c0-0.6,0.1-1.2,0.3-1.7h-5.8c-5.4,0-9.7,4.3-9.7,9.7l0,0V244c0,5.4,4.3,9.7,9.7,9.7l0,0H443c5.4,0,9.7-4.3,9.7-9.7l0,0V121.4
	C452.8,116.1,448.5,111.7,443.1,111.7L443.1,111.7z"/>
<rect x="187" y="183.4" class="st1" width="93.8" height="4.3"/>
<rect x="187" y="197.2" class="st3" width="93.8" height="4.3"/>
<rect x="187" y="211" class="st1" width="93.8" height="4.3"/>
<rect x="392.5" y="192.8" class="st1" width="54.8" height="4.3"/>
<rect x="392.5" y="206" class="st1" width="54.8" height="4.3"/>
<rect x="392.5" y="219.3" class="st1" width="54.8" height="4.3"/>
<rect x="443.8" y="276.6" class="st4" width="9.1" height="9.1"/>
<rect x="429.1" y="276.6" class="st3" width="9.1" height="9.1"/>
<rect x="414.5" y="276.6" class="st4" width="9.1" height="9.1"/>
<rect x="399.7" y="276.6" class="st4" width="9.1" height="9.1"/>
<rect x="385.1" y="276.6" class="st4" width="9.1" height="9.1"/>
<rect x="404.1" y="137.3" class="st3" width="30.4" height="30.4"/>
<path class="st5" d="M221.8,209.8l-0.4,0.8l-1.2-5.9c0,0-1.6-6.3,1.6-6.3c3.1,0,2.4,6.3,2.4,6.3v4.3L221.8,209.8z"/>
<path class="st5" d="M273.5,209.1l0.4,0.8l1.2-5.9c0,0,1.6-6.3-1.6-6.3s-2.4,6.3-2.4,6.3v4.3L273.5,209.1z"/>
<polygon class="st6" points="239.1,254.1 234.4,283.3 236.8,311.6 242.2,309.2 241.5,288 247,271 248.2,291.2 245.8,312 
	252.9,312.8 258.1,269.9 257.7,255.3 "/>
<path class="st6" d="M239.1,308.1l-2.7,4.3v9.7c0,0.6,0.4,1.1,1,1.2c1.3,0.2,3.7,0.4,4.6-1c1.2-2,0.4-6.3,0.4-6.3s1.6-3.1,0.8-5.6
	c-0.8-2.4-1.6-2.7-1.6-2.7L239.1,308.1z"/>
<path class="st6" d="M250.9,312l0.8,1.2c0,0,1.2,1.2,0.4,2c-0.6,0.6-1.1,1.2-1.6,2c0,0-4.3,1.2-4.3-0.4v-5.1L250.9,312z"/>
<circle class="st5" cx="249.5" cy="216.9" r="5.2"/>
<polygon class="st5" points="246.1,218.5 245.6,226 252.7,226.4 252.4,218.9 "/>
<path class="st7" d="M253.7,226.6l-1.1-2.7c0,0-5.2-2-6.8,0l-0.8,2.4l-6.3-1.6l-3.6,7.9l3.1,22.4c0,0,8.3,10.6,19.3,0.4l3.1-21.3
	l-2.4-8.3L253.7,226.6z"/>
<polygon class="st7" points="257.7,227.4 258.4,225.8 266.3,221.1 271.1,206.8 274.8,208.4 270.7,225.4 259.2,236 "/>
<polygon class="st7" points="239.5,225.4 238.8,224.6 230.5,219.5 224.6,207.7 219.9,209.2 224.9,223.8 237.5,234.1 "/>
<path class="st6" d="M253.4,208.9l0.8-0.4l-1.2-0.4v-0.4c0,0-6.4-2.6-7.3,1.7c-2.2,3.1-2.2,7.2,0,10.3v1.2l6.8,0.8l0.8-2.6
	C253.4,219.1,257.7,211.5,253.4,208.9z"/>
<path class="st8" d="M97.2,254.6l-1.5,0.7c0,0-6,2.8-4.3,4.3c1.7,1.5,6.5-1.5,6.5-1.5l1-1.2L97.2,254.6z"/>
<polygon class="st6" points="141.6,254.2 136.9,285.7 129.8,307.7 126,305.9 129.6,275.8 119.5,267.2 120.2,254.6 "/>
<path class="st6" d="M125.5,306.7c0,0,4.3-2.2,4.6,1l-0.5,3.3c0,0,1.5,5.8-3.6,4.6c-5.1-1.2-1.5-5.1-1.5-5.1L125.5,306.7z"/>
<path class="st6" d="M122.7,264.5l-3.3,2.8c0,0,0,17.2,2.2,19.7c2.2,2.6,16.7,15.4,17.2,15.9c0.5,0.5,2.8-5.1,2.8-5.1L128,282l1-9.9
	L122.7,264.5z"/>
<path class="st6" d="M140.2,297.1c0,0,4.1-0.7,4.1,2c0.1,2.2,0.2,4.4,0.5,6.5c0,0,1,8.9-2.2,7.6c-3.3-1.2-4.6-10.1-4.6-10.1
	c0.3-0.7,0.8-1.3,1.5-1.7C140.4,300.9,140.2,297.1,140.2,297.1z"/>
<polygon class="st8" points="127.5,216.7 128.3,226.1 126.3,229.5 120.7,224.2 120.2,217.2 "/>
<circle class="st8" cx="123" cy="213.6" r="6"/>
<polygon class="st9" points="125.5,225.8 128.1,218.4 132.7,223.5 140.9,255.6 134.6,259.4 131.8,255.4 131.3,260.7 119,258.1 
	117.9,224.2 120.5,220.7 "/>
<polygon class="st6" points="122,261.7 120.5,220.8 117.2,223.2 111.1,227.3 115.2,241.7 116.4,256.9 "/>
<polygon class="st6" points="112.9,227.5 111.1,227.3 106.1,242.2 96,254.9 99.8,258.9 111.4,247.5 115.7,238.2 "/>
<path class="st8" d="M140.5,254.8l-0.3,1.7c0,0-1.6,6.5,0.7,6s2.9-6.1,2.9-6.1l-0.3-1.6H140.5z"/>
<polygon class="st6" points="127.7,218 140.2,223 138.7,238.2 141.7,254.9 138.7,258.1 127.4,220.2 "/>
<path class="st6" d="M123.3,203.4l1.8-0.9v0.9l1.2-0.6v1.5c0,0,4.5,3.2,3.6,7.1c-0.9,3.9-0.9,4.1-0.9,4.1s-1.2-7.4-5.6-6.1
	c-4.5,1.2-4.8,1.4-6,4.6l-0.3,1.4C117.1,215.5,112,204,123.3,203.4z"/>
<polygon class="st6" points="138.4,223 140.4,223 143.8,240.7 143.8,256.1 139.7,255.4 136.4,232.1 "/>
<rect x="38" y="260.4" class="st3" width="74.6" height="51.8"/>
<path class="st2" d="M75.2,270.5c-8.7,0-15.8,7-15.8,15.8c0,8.7,7,15.8,15.8,15.8s15.8-7,15.8-15.8C91,277.6,83.9,270.5,75.2,270.5z
	 M75.2,275.3c2.7,0,4.7,2.2,4.7,4.7c0,2.7-2.2,4.7-4.7,4.7c-2.7,0-4.7-2.2-4.7-4.7l0,0C70.5,277.4,72.6,275.3,75.2,275.3z M75.2,298
	c-3.8,0-7.4-1.9-9.4-5.1c0.1-3.1,6.3-4.9,9.4-4.9c3.1,0,9.4,1.7,9.4,4.9C82.5,296.1,79.1,298,75.2,298z"/>
<rect x="187.1" y="111.7" class="st1" width="93.5" height="53.7"/>
<path class="st8" d="M465.5,218.2l0.4-2.8c0,0,2.5-5.7,0.5-6c-2-0.3-3.6,5.1-3.6,5.1l0.7,5.8L465.5,218.2z"/>
<polygon class="st7" points="485.9,234 468.1,230.4 466,217.4 460.7,217 461,233.8 476.5,242 "/>
<polygon class="st10" points="485.9,234 468.1,230.4 466,217.4 460.7,217 461,233.8 476.5,242 "/>
<rect x="437.3" y="210.5" class="st3" width="54.8" height="4.3"/>
<path class="st8" d="M461.9,217.2v-2.8c0,0,1.7-6-0.4-6c-2.1,0-2.8,5.6-2.8,5.6l1.6,5.6L461.9,217.2z"/>
<path class="st6" d="M485.2,225.3l2.5-0.6c3.5,0,6.3-2.8,6.3-6.3c0-0.4,0-0.8-0.2-1.2l0,0c0-4.6-3.6-8.2-8.2-8.3l0,0l0,0
	c-4.6,0-8.2,3.6-8.3,8.2l0,0l0,0c-1,3.5,1,7.1,4.5,8.1C482.9,225.6,484,225.6,485.2,225.3z"/>
<polygon class="st6" points="470.8,266.1 472.8,287.9 476.4,309.3 482.5,309.3 481.6,288.4 478.5,262.8 "/>
<path class="st6" d="M477.2,308.2l-4.1,2.4c0,0-6.5,0.8-5.2,2.8s15.3,0.8,15.3,0s-0.4-5.2-1.2-5.2H477.2z"/>
<path class="st6" d="M488.7,264.2c0,0-0.1,3.1-3,8l0.4,14.9l14.5,18.6l-5.2,4.5L477.7,290l-4.4-24.3l5.6-5.6L488.7,264.2z"/>
<path class="st6" d="M499.5,305.7c0,0,4.9,0.8,4.1,2.8c-0.8,2-2.8,11.3-8.1,10.1c0,0-2.4,0-1.6-1.7c0.5-1,1-1.9,1.7-2.8V309
	L499.5,305.7z"/>
<circle class="st8" cx="482.6" cy="219.7" r="6"/>
<polygon class="st8" points="485.4,223.7 485.4,230.5 478.9,230.5 479.7,223.7 "/>
<path class="st7" d="M477.3,228.1l2-0.5l6.1,0.5c0,0,3.2,3.2,2.8,4.1c-0.4,0.8-2.5,20.6-2.5,20.6l3.6,14.2l-12.9,0.8L470,267
	l1.2-25.4c0,0-2.8-6.9,0.8-8.9C474.1,231.5,475.9,230,477.3,228.1z"/>
<polygon class="st7" points="484.5,229.8 466.4,229 462.3,216.4 457.1,216.8 459.9,233.3 476.5,239.1 "/>
<circle class="st6" cx="494.2" cy="211.3" r="3.9"/>
<path class="st6" d="M490.7,209.2c0-2.2,1.7-3.9,3.9-3.9c0.2,0,0.5,0,0.7,0.1c-2-0.9-4.3-0.1-5.2,1.8c-0.9,1.9-0.1,4.3,1.8,5.2
	c0.2,0.2,0.6,0.2,0.9,0.3C491.5,212.1,490.7,210.7,490.7,209.2z"/>
<path class="st6" d="M487.3,211.4l-5.3-1l-4.1,2.6c-2.1,1.2-3.1,3.6-2.8,6l4.1-1l0.9-2.3l1.1,1.7l4.4,7.7l4.5-2.4l2.8-4.5
	L487.3,211.4z"/>
<rect x="233.2" y="84.6" transform="matrix(0.4977 -0.8673 0.8673 0.4977 -2.729 272.3516)" class="st2" width="1.1" height="107.8"/>
<rect x="179.9" y="138" transform="matrix(0.8674 -0.4977 0.4977 0.8674 -37.9543 134.717)" class="st2" width="107.8" height="1.1"/>
<rect x="418.9" y="131" transform="matrix(0.7071 -0.7071 0.7071 0.7071 15.1053 341.2435)" class="st2" width="1.1" height="42.8"/>
<rect x="398.1" y="151.8" transform="matrix(0.7071 -0.7071 0.7071 0.7071 15.1053 341.2435)" class="st2" width="42.8" height="1.1"/>
</svg>
