<?xml version="1.0" encoding="utf-8"?>
<!-- Generator: Adobe Illustrator 23.0.0, SVG Export Plug-In . SVG Version: 6.00 Build 0)  -->
<svg version="1.1" id="Layer_1" xmlns="http://www.w3.org/2000/svg" xmlns:xlink="http://www.w3.org/1999/xlink" x="0px" y="0px"
	 viewBox="0 0 538 380" style="enable-background:new 0 0 538 380;" xml:space="preserve">
<style type="text/css">
	.st0{fill-rule:evenodd;clip-rule:evenodd;fill:#304057;}
	.st1{fill:#E6E6E6;}
	.st2{fill:#FFFFFF;}
	.st3{fill:#6C63FF;}
	.st4{fill:#3F3D56;}
	.st5{fill:#A0616A;}
	.st6{fill:#2F2E41;}
	.st7{fill:#575A89;}
	.st8{fill:#FFB8B8;}
	.st9{fill:#D0CDE1;}
	.st10{opacity:0.2;enable-background:new    ;}
</style>
<path class="st0" d="M0,0h538v380H0V0z"/>
<rect x="136.4" y="62.1" class="st1" width="386.8" height="247.7"/>
<rect x="170.6" y="95.3" class="st2" width="139.6" height="143.5"/>
<rect x="362.5" y="98.1" class="st2" width="139.6" height="174.3"/>
<ellipse class="st1" cx="500.3" cy="324.2" rx="25" ry="3.6"/>
<ellipse class="st1" cx="250.2" cy="324.3" rx="25" ry="3.6"/>
<ellipse class="st1" cx="93.3" cy="320.7" rx="57.4" ry="2.7"/>
<rect x="136.3" y="61.8" class="st3" width="386.8" height="16.4"/>
<circle class="st1" cx="148.5" cy="70.2" r="3"/>
<circle class="st1" cx="160" cy="70.2" r="3"/>
<circle class="st1" cx="171.6" cy="70.2" r="3"/>
<path class="st4" d="M471.4,144.8h-0.8v-23.2c0-7.4-6-13.4-13.4-13.4l0,0H408c-7.4,0-13.4,6-13.4,13.4l0,0v127.1
	c0,7.4,6,13.4,13.4,13.4l0,0h49.1c7.4,0,13.4-6,13.4-13.4l0,0v-87.5h0.8L471.4,144.8z"/>
<path class="st2" d="M457.1,111.8h-6.4c1,2.4-0.2,5.2-2.6,6.2c-0.6,0.2-1.2,0.4-1.8,0.4h-28.1c-2.6,0-4.8-2.1-4.8-4.8
	c0-0.6,0.1-1.2,0.4-1.8h-6c-5.5,0-10,4.5-10,10l0,0v126.9c0,5.5,4.5,10,10,10l0,0h49.3c5.5,0,10-4.5,10-10l0,0V121.8
	C467.1,116.2,462.6,111.8,457.1,111.8L457.1,111.8z"/>
<rect x="192" y="186" class="st1" width="97.1" height="4.4"/>
<rect x="192" y="200.3" class="st3" width="97.1" height="4.4"/>
<rect x="192" y="214.5" class="st1" width="97.1" height="4.4"/>
<rect x="404.6" y="195.6" class="st1" width="56.7" height="4.4"/>
<rect x="404.6" y="209.4" class="st1" width="56.7" height="4.4"/>
<rect x="404.6" y="223.1" class="st1" width="56.7" height="4.4"/>
<rect x="457.8" y="282.4" class="st4" width="9.4" height="9.4"/>
<rect x="442.6" y="282.4" class="st3" width="9.4" height="9.4"/>
<rect x="427.4" y="282.4" class="st4" width="9.4" height="9.4"/>
<rect x="412.1" y="282.4" class="st4" width="9.4" height="9.4"/>
<rect x="396.9" y="282.4" class="st4" width="9.4" height="9.4"/>
<rect x="416.7" y="138.2" class="st3" width="31.5" height="31.5"/>
<path class="st5" d="M228,213.3l-0.4,0.8l-1.2-6.1c0,0-1.6-6.5,1.6-6.5c3.3,0,2.4,6.5,2.4,6.5v4.5L228,213.3z"/>
<path class="st5" d="M281.5,212.5l0.4,0.8l1.2-6.1c0,0,1.6-6.5-1.6-6.5s-2.4,6.5-2.4,6.5v4.5L281.5,212.5z"/>
<polygon class="st6" points="246,259.2 241.1,289.3 243.5,318.6 249.2,316.2 248.4,294.2 254.1,276.7 255.3,297.5 252.9,319.1 
	260.2,319.9 265.5,275.5 265.1,260.4 "/>
<path class="st6" d="M246,315l-2.9,4.5v10c0,0.6,0.4,1.1,1,1.2c1.4,0.2,3.8,0.4,4.7-1c1.2-2,0.4-6.5,0.4-6.5s1.6-3.3,0.8-5.7
	c-0.8-2.4-1.6-2.9-1.6-2.9L246,315z"/>
<path class="st6" d="M258.2,319.1l0.8,1.2c0,0,1.2,1.2,0.4,2c-0.6,0.6-1.1,1.3-1.6,2c0,0-4.5,1.2-4.5-0.4v-5.3L258.2,319.1z"/>
<circle class="st5" cx="256.7" cy="220.6" r="5.4"/>
<polygon class="st5" points="253.1,222.3 252.7,230 260,230.4 259.6,222.7 "/>
<path class="st7" d="M261,230.6l-1.2-2.8c0,0-5.4-2.1-7,0l-0.8,2.4l-6.5-1.6l-3.7,8.1l3.3,23.2c0,0,8.6,11,20,0.4l3.3-22l-2.4-8.6
	L261,230.6z"/>
<polygon class="st7" points="265.1,231.5 265.9,229.8 274.1,224.9 279.1,210.2 282.9,211.9 278.6,229.4 266.7,240.4 "/>
<polygon class="st7" points="246.4,229.4 245.6,228.6 237,223.3 230.9,211.1 226,212.7 231.3,227.8 244.3,238.4 "/>
<path class="st6" d="M260.7,212.3l0.9-0.4l-1.3-0.4V211c0,0-6.6-2.6-7.5,1.8c-2.3,3.1-2.3,7.5,0,10.6v1.3l7.1,0.9l0.9-2.6
	C260.7,222.9,265.1,215,260.7,212.3z"/>
<path class="st8" d="M99.1,259.6l-1.6,0.8c0,0-6.3,2.9-4.4,4.4c1.8,1.6,6.8-1.6,6.8-1.6l1-1.3L99.1,259.6z"/>
<polygon class="st6" points="145,259.3 140.2,291.8 132.9,314.6 128.9,312.8 132.6,281.6 122.1,272.7 122.9,259.6 "/>
<path class="st6" d="M128.4,313.5c0,0,4.4-2.4,4.7,1l-0.5,3.4c0,0,1.6,6-3.7,4.7c-5.2-1.3-1.6-5.2-1.6-5.2L128.4,313.5z"/>
<path class="st6" d="M125.5,269.8l-3.4,2.9c0,0,0,17.8,2.4,20.4s17.3,16,17.8,16.5s2.9-5.2,2.9-5.2L131,287.9l1-10.2L125.5,269.8z"
	/>
<path class="st6" d="M143.6,303.6c0,0,4.2-0.8,4.2,2.1c0.1,2.3,0.2,4.5,0.5,6.8c0,0,1,9.2-2.4,7.8s-4.7-10.5-4.7-10.5
	c0.3-0.8,0.9-1.4,1.6-1.8C143.9,307.5,143.6,303.6,143.6,303.6z"/>
<polygon class="st8" points="130.5,220.4 131.3,230.1 129.2,233.7 123.4,228.2 122.9,220.9 "/>
<circle class="st8" cx="125.8" cy="217.3" r="6.3"/>
<polygon class="st9" points="128.4,229.8 131,222.2 135.7,227.5 144.4,260.7 137.8,264.6 135,260.4 134.4,265.9 121.6,263.3 
	120.6,228.2 123.2,224.6 "/>
<polygon class="st6" points="124.8,267 123.2,224.6 119.8,227.2 113.5,231.4 117.7,246.3 119,262 "/>
<polygon class="st6" points="115.3,231.6 113.5,231.4 108.3,246.8 97.8,259.9 101.7,264.1 113.8,252.3 118.2,242.6 "/>
<path class="st8" d="M143.9,259.9l-0.4,1.7c0,0-1.6,6.7,0.7,6.2c2.4-0.5,3-6.3,3-6.3l-0.4-1.6L143.9,259.9z"/>
<polygon class="st6" points="130.6,221.8 143.6,226.9 142,242.6 145.2,259.9 142,263.3 130.4,224 "/>
<path class="st6" d="M126.1,206.7l1.8-0.9v0.9l1.2-0.6v1.5c0,0,4.6,3.4,3.7,7.4c-0.9,4-0.9,4.3-0.9,4.3s-1.2-7.6-5.8-6.4
	s-5,1.5-6.2,4.8l-0.3,1.4C119.7,219.2,114.5,207.3,126.1,206.7z"/>
<polygon class="st6" points="141.8,226.9 143.9,226.9 147.3,245.3 147.3,261.2 143.1,260.4 139.7,236.4 "/>
<rect x="37.8" y="265.7" class="st3" width="77.1" height="53.6"/>
<path class="st2" d="M76.4,276.1c-9,0-16.3,7.3-16.3,16.3s7.3,16.3,16.3,16.3s16.3-7.3,16.3-16.3C92.7,283.5,85.4,276.2,76.4,276.1z
	 M76.4,281c2.7,0,4.9,2.2,4.9,4.9c0,2.7-2.2,4.9-4.9,4.9c-2.7,0-4.9-2.2-4.9-4.9l0,0C71.5,283.2,73.7,281,76.4,281z M76.4,304.6
	c-3.9,0-7.6-2-9.8-5.2c0.1-3.3,6.5-5.1,9.8-5.1s9.7,1.8,9.8,5.1C84,302.7,80.3,304.6,76.4,304.6z"/>
<rect x="192.1" y="111.8" class="st1" width="96.8" height="55.5"/>
<path class="st8" d="M480.2,221.9l0.4-2.9c0,0,2.6-5.9,0.5-6.3c-2.1-0.3-3.8,5.3-3.8,5.3l0.8,6L480.2,221.9z"/>
<polygon class="st7" points="501.3,238.3 482.8,234.6 480.7,221.2 475.3,220.8 475.5,238.1 491.6,246.6 "/>
<polygon class="st10" points="501.3,238.3 482.8,234.6 480.7,221.2 475.3,220.8 475.5,238.1 491.6,246.6 "/>
<rect x="451.1" y="214" class="st3" width="56.7" height="4.4"/>
<path class="st8" d="M476.5,221v-2.9c0,0,1.7-6.3-0.4-6.3s-2.9,5.8-2.9,5.8l1.7,5.9L476.5,221z"/>
<path class="st6" d="M500.6,229.3l2.5-0.6c3.6,0,6.5-2.9,6.5-6.5c0-0.4,0-0.9-0.1-1.3l0,0c0-4.7-3.8-8.5-8.5-8.5l0,0l0,0
	c-4.7,0-8.5,3.8-8.5,8.5l0,0l0,0c-1,3.6,1,7.3,4.6,8.4C498.2,229.6,499.4,229.6,500.6,229.3z"/>
<polygon class="st6" points="485.7,271.5 487.7,294.1 491.5,316.3 497.7,316.3 496.9,294.5 493.6,268.2 "/>
<path class="st6" d="M492.3,315l-4.2,2.5c0,0-6.7,0.8-5.4,2.9c1.3,2.1,15.9,0.9,15.9,0c0-0.8-0.4-5.4-1.2-5.4H492.3z"/>
<path class="st6" d="M504.2,269.6c0,0-0.1,3.2-3.1,8.2l0.4,15.5l15,19.2l-5.4,4.6l-18.4-20.9l-4.6-25.1l5.9-5.8L504.2,269.6z"/>
<path class="st6" d="M515.3,312.5c0,0,5,0.8,4.2,2.9s-2.9,11.7-8.4,10.4c0,0-2.5,0-1.7-1.7c0.5-1,1.1-2,1.7-2.9v-5.4L515.3,312.5z"
	/>
<circle class="st8" cx="497.9" cy="223.5" r="6.3"/>
<polygon class="st8" points="500.8,227.7 500.8,234.8 494.1,234.8 494.9,227.7 "/>
<path class="st7" d="M492.4,232.3l2-0.5l6.3,0.5c0,0,3.3,3.3,2.9,4.2c-0.4,0.8-2.5,21.3-2.5,21.3l3.7,14.6l-13.4,0.8l-6.7-0.8
	l1.3-26.3c0,0-2.9-7.1,0.8-9.2C489.1,235.7,491,234.2,492.4,232.3z"/>
<polygon class="st7" points="499.9,233.9 481.1,233.1 477,220.1 471.5,220.5 474.4,237.7 491.6,243.5 "/>
<circle class="st6" cx="510" cy="214.8" r="4"/>
<path class="st6" d="M506.2,212.6c0-2.2,1.8-4,4-4c0.3,0,0.5,0,0.8,0.1c-2-1-4.4-0.1-5.4,1.9s-0.1,4.4,1.9,5.4
	c0.3,0.1,0.6,0.2,0.9,0.3C507.1,215.6,506.2,214.2,506.2,212.6z"/>
<path class="st6" d="M502.8,214.9l-5.5-1l-4.2,2.6c-2.1,1.3-3.3,3.7-2.9,6.2l4.2-1.1l0.9-2.4l1.1,1.8l4.5,7.9l4.6-2.5l2.9-4.6
	L502.8,214.9z"/>
<rect x="239.9" y="83.8" transform="matrix(0.4977 -0.8673 0.8673 0.4977 -0.2981 278.6789)" class="st2" width="1.1" height="111.6"/>
<rect x="184.7" y="139" transform="matrix(0.8674 -0.4977 0.4977 0.8674 -37.5409 138.1951)" class="st2" width="111.6" height="1.1"/>
<rect x="432" y="131.7" transform="matrix(0.7071 -0.7071 0.7071 0.7071 17.8742 350.9286)" class="st2" width="1.1" height="44.3"/>
<rect x="410.4" y="153.3" transform="matrix(0.7071 -0.7071 0.7071 0.7071 17.8742 350.9286)" class="st2" width="44.3" height="1.1"/>
</svg>
