<?xml version="1.0" encoding="utf-8"?>
<!-- Generator: Adobe Illustrator 23.0.0, SVG Export Plug-In . SVG Version: 6.00 Build 0)  -->
<svg version="1.1" id="b66c9c51-8109-402d-a3f9-100a5bb3d153"
	 xmlns="http://www.w3.org/2000/svg" xmlns:xlink="http://www.w3.org/1999/xlink" x="0px" y="0px" viewBox="0 0 890.3 489.3"
	 style="enable-background:new 0 0 890.3 489.3;" xml:space="preserve">
<style type="text/css">
	.st0{fill:#E6E6E6;}
	.st1{fill:#FFFFFF;}
	.st2{fill:#6C63FF;}
	.st3{fill:#3F3D56;}
	.st4{fill:#A0616A;}
	.st5{fill:#2F2E41;}
	.st6{fill:#575A89;}
	.st7{fill:#FFB8B8;}
	.st8{fill:#D0CDE1;}
	.st9{opacity:0.2;enable-background:new    ;}
</style>
<title>work_together</title>
<rect x="244.8" y="89.7" class="st0" width="451.2" height="289"/>
<rect x="284.7" y="128.6" class="st1" width="162.9" height="167.4"/>
<rect x="508.5" y="131.8" class="st1" width="162.9" height="203.3"/>
<ellipse class="st0" cx="669.2" cy="395.6" rx="29.2" ry="4.2"/>
<ellipse class="st0" cx="377.5" cy="395.7" rx="29.2" ry="4.2"/>
<ellipse class="st0" cx="194.4" cy="391.5" rx="67" ry="3.2"/>
<rect x="244.6" y="89.5" class="st2" width="451.2" height="19.2"/>
<circle class="st0" cx="258.8" cy="99.3" r="3.6"/>
<circle class="st0" cx="272.3" cy="99.3" r="3.6"/>
<circle class="st0" cx="285.8" cy="99.3" r="3.6"/>
<path class="st3" d="M635.5,186.3h-1v-27c0-8.6-7-15.6-15.6-15.6c0,0,0,0,0,0h-57.3c-8.6,0-15.6,7-15.6,15.6c0,0,0,0,0,0v148.3
	c0,8.6,7,15.6,15.6,15.6c0,0,0,0,0,0h57.3c8.6,0,15.6-7,15.6-15.6c0,0,0,0,0,0v-102h1V186.3z"/>
<path class="st1" d="M618.8,147.7h-7.5c1.2,2.8-0.2,6.1-3,7.2c-0.7,0.3-1.4,0.4-2.1,0.4h-32.8c-3.1,0-5.6-2.5-5.6-5.6
	c0-0.7,0.1-1.4,0.4-2.1h-7c-6.5,0-11.7,5.2-11.7,11.7c0,0,0,0,0,0v148.1c0,6.5,5.2,11.7,11.7,11.7l0,0h57.5
	c6.5,0,11.7-5.2,11.7-11.7l0,0V159.4C630.5,153,625.3,147.7,618.8,147.7L618.8,147.7z"/>
<rect x="309.6" y="234.3" class="st0" width="113.2" height="5.2"/>
<rect x="309.6" y="251" class="st2" width="113.2" height="5.2"/>
<rect x="309.6" y="267.6" class="st0" width="113.2" height="5.2"/>
<rect x="557.7" y="245.6" class="st0" width="66.1" height="5.2"/>
<rect x="557.7" y="261.6" class="st0" width="66.1" height="5.2"/>
<rect x="557.7" y="277.6" class="st0" width="66.1" height="5.2"/>
<rect x="619.6" y="346.8" class="st3" width="11" height="11"/>
<rect x="601.9" y="346.8" class="st2" width="11" height="11"/>
<rect x="584.2" y="346.8" class="st3" width="11" height="11"/>
<rect x="566.4" y="346.8" class="st3" width="11" height="11"/>
<rect x="548.7" y="346.8" class="st3" width="11" height="11"/>
<rect x="571.7" y="178.6" class="st2" width="36.7" height="36.7"/>
<path class="st4" d="M351.6,266.2l-0.5,1l-1.4-7.1c0,0-1.9-7.6,1.9-7.6c3.8,0,2.9,7.6,2.9,7.6v5.2L351.6,266.2z"/>
<path class="st4" d="M414,265.3l0.5,1l1.4-7.1c0,0,1.9-7.6-1.9-7.6c-3.8,0-2.9,7.6-2.9,7.6v5.2L414,265.3z"/>
<polygon class="st5" points="372.5,319.7 366.8,354.9 369.7,389.1 376.3,386.2 375.4,360.6 382.1,340.1 383.5,364.4 380.6,389.6 
	389.2,390.5 395.4,338.7 394.9,321.1 "/>
<path class="st5" d="M372.5,384.8l-3.3,5.2v11.7c0,0.7,0.5,1.3,1.2,1.4c1.6,0.3,4.5,0.5,5.5-1.2c1.4-2.4,0.5-7.6,0.5-7.6
	s1.9-3.8,1-6.7c-1-2.9-1.9-3.3-1.9-3.3L372.5,384.8z"/>
<path class="st5" d="M386.8,389.6l1,1.4c0,0,1.4,1.4,0.5,2.4c-0.7,0.7-1.3,1.5-1.9,2.4c0,0-5.2,1.4-5.2-0.5v-6.2L386.8,389.6z"/>
<circle class="st4" cx="385.1" cy="274.7" r="6.3"/>
<polygon class="st4" points="380.9,276.7 380.4,285.7 388.9,286.2 388.5,277.2 "/>
<path class="st6" d="M390.1,286.4l-1.3-3.3c0,0-6.3-2.4-8.2,0l-1,2.9l-7.6-1.9l-4.3,9.5l3.8,27.1c0,0,10,12.8,23.3,0.5l3.8-25.7
	l-2.9-10L390.1,286.4z"/>
<polygon class="st6" points="394.9,287.4 395.8,285.5 405.3,279.8 411.1,262.6 415.6,264.5 410.6,285 396.8,297.8 "/>
<polygon class="st6" points="373,285 372.1,284 362.1,277.9 355,263.6 349.3,265.5 355.4,283.1 370.6,295.5 "/>
<path class="st5" d="M389.8,265.1l1-0.5l-1.5-0.5v-0.5c0,0-7.7-3.1-8.8,2.1c-2.7,3.7-2.7,8.7,0,12.4v1.5l8.2,1l1-3.1
	C389.8,277.4,394.9,268.2,389.8,265.1z"/>
<path class="st7" d="M201.2,320.3l-1.8,0.9c0,0-7.3,3.4-5.2,5.2c2.1,1.8,7.9-1.8,7.9-1.8l1.2-1.5L201.2,320.3z"/>
<polygon class="st5" points="254.8,319.8 249.1,357.8 240.6,384.4 236,382.2 240.3,345.9 228.1,335.5 229,320.3 "/>
<path class="st5" d="M235.4,383.1c0,0,5.2-2.7,5.5,1.2l-0.6,4c0,0,1.8,7-4.3,5.5c-6.1-1.5-1.8-6.1-1.8-6.1L235.4,383.1z"/>
<path class="st5" d="M232,332.2l-4,3.4c0,0,0,20.8,2.7,23.8c2.7,3.1,20.1,18.6,20.8,19.2c0.6,0.6,3.4-6.1,3.4-6.1l-16.5-19.2
	l1.2-11.9L232,332.2z"/>
<path class="st5" d="M253.1,371.5c0,0,4.9-0.9,4.9,2.4c0.1,2.7,0.3,5.3,0.6,7.9c0,0,1.2,10.7-2.7,9.2c-4-1.5-5.5-12.2-5.5-12.2
	c0.4-0.9,1-1.6,1.8-2.1C253.4,376.1,253.1,371.5,253.1,371.5z"/>
<polygon class="st7" points="237.8,274.5 238.8,285.8 236.3,290 229.6,283.6 229,275.1 "/>
<circle class="st7" cx="232.4" cy="270.8" r="7.3"/>
<polygon class="st8" points="235.4,285.5 238.5,276.6 244,282.7 254,321.5 246.4,326.1 243,321.2 242.4,327.6 227.5,324.5 
	226.2,283.6 229.3,279.3 "/>
<polygon class="st5" points="231.1,328.8 229.3,279.4 225.3,282.4 218,287.3 222.9,304.7 224.4,323 "/>
<polygon class="st5" points="220.1,287.6 218,287.3 211.9,305.3 199.7,320.6 204.3,325.4 218.3,311.7 223.5,300.4 "/>
<path class="st7" d="M253.5,320.5l-0.4,2c0,0-1.9,7.8,0.9,7.3s3.5-7.4,3.5-7.4l-0.4-1.9L253.5,320.5z"/>
<polygon class="st5" points="238,276.1 253.1,282.1 251.3,300.4 254.9,320.6 251.3,324.5 237.7,278.7 "/>
<path class="st5" d="M232.7,258.5l2.2-1.1v1.1l1.4-0.7v1.8c0,0,5.4,3.9,4.3,8.6s-1.1,5-1.1,5s-1.4-8.9-6.7-7.4
	c-5.4,1.4-5.8,1.7-7.2,5.6l-0.4,1.7C225.2,273.1,219.1,259.2,232.7,258.5z"/>
<polygon class="st5" points="251,282.1 253.4,282.1 257.4,303.5 257.4,322.1 252.5,321.2 248.5,293.1 "/>
<rect x="129.7" y="327.3" class="st2" width="90" height="62.5"/>
<path class="st1" d="M174.7,339.5c-10.5,0-19.1,8.5-19.1,19.1c0,10.5,8.5,19.1,19.1,19.1s19.1-8.5,19.1-19.1
	C193.7,348,185.2,339.5,174.7,339.5z M174.7,345.2c3.2,0,5.7,2.6,5.7,5.7c0,3.2-2.6,5.7-5.7,5.7c-3.2,0-5.7-2.6-5.7-5.7l0,0
	C169,347.8,171.5,345.2,174.7,345.2z M174.7,372.7c-4.6,0-8.9-2.3-11.4-6.1c0.1-3.8,7.6-5.9,11.4-5.9s11.3,2.1,11.4,5.9
	C183.5,370.4,179.3,372.7,174.7,372.7z"/>
<rect x="309.7" y="147.8" class="st0" width="112.9" height="64.8"/>
<path class="st7" d="M645.8,276.3l0.5-3.4c0,0,3-6.9,0.6-7.3c-2.4-0.4-4.4,6.2-4.4,6.2l0.9,7L645.8,276.3z"/>
<polygon class="st6" points="670.4,295.4 648.9,291.1 646.4,275.4 640,274.9 640.4,295.2 659.1,305 "/>
<polygon class="st9" points="670.4,295.4 648.9,291.1 646.4,275.4 640,274.9 640.4,295.2 659.1,305 "/>
<rect x="611.8" y="267" class="st2" width="66.1" height="5.2"/>
<path class="st7" d="M641.5,275.1l0-3.4c0,0,2-7.3-0.5-7.3s-3.4,6.8-3.4,6.8l1.9,6.8L641.5,275.1z"/>
<path class="st5" d="M669.6,284.9l3-0.7c4.2,0,7.6-3.4,7.6-7.6c0-0.5,0-1-0.2-1.5l0,0c0-5.5-4.4-9.9-9.9-10l0,0l0,0
	c-5.5,0-9.9,4.4-10,9.9l0,0l0,0c-1.2,4.2,1.2,8.6,5.4,9.8C666.8,285.2,668.2,285.2,669.6,284.9z"/>
<polygon class="st5" points="652.2,334.1 654.6,360.5 659,386.3 666.3,386.3 665.3,361 661.5,330.2 "/>
<path class="st5" d="M659.9,384.9l-4.9,2.9c0,0-7.8,1-6.3,3.4c1.5,2.4,18.5,1,18.5,0c0-1-0.5-6.3-1.5-6.3L659.9,384.9z"/>
<path class="st5" d="M673.8,331.9c0,0-0.1,3.8-3.6,9.6l0.5,18l17.5,22.5l-6.3,5.4l-21.4-24.4l-5.3-29.3l6.8-6.8L673.8,331.9z"/>
<path class="st5" d="M686.8,382c0,0,5.9,1,4.9,3.4c-1,2.4-3.4,13.7-9.8,12.2c0,0-2.9,0-1.9-2c0.6-1.2,1.2-2.3,2-3.4l0-6.3L686.8,382
	z"/>
<circle class="st7" cx="666.4" cy="278.1" r="7.3"/>
<polygon class="st7" points="669.8,283 669.8,291.2 662,291.2 663,282.9 "/>
<path class="st6" d="M660.1,288.3l2.4-0.6l7.4,0.6c0,0,3.9,3.9,3.4,4.9c-0.5,1-3,24.9-3,24.9l4.4,17.1l-15.6,1l-7.8-1l1.5-30.7
	c0,0-3.4-8.3,1-10.7C656.2,292.4,658.4,290.5,660.1,288.3z"/>
<polygon class="st6" points="668.8,290.3 646.9,289.3 642,274.1 635.7,274.6 639.1,294.6 659.1,301.5 "/>
<circle class="st5" cx="680.5" cy="268" r="4.7"/>
<path class="st5" d="M676.2,265.4c0-2.6,2.1-4.7,4.7-4.7c0.3,0,0.6,0,0.9,0.1c-2.4-1.1-5.2-0.1-6.3,2.2s-0.1,5.2,2.2,6.3
	c0.3,0.2,0.7,0.3,1.1,0.4C677.2,268.9,676.2,267.3,676.2,265.4z"/>
<path class="st5" d="M672.1,268.1l-6.4-1.2l-4.9,3.1c-2.5,1.5-3.8,4.4-3.4,7.2l4.9-1.2l1.1-2.8l1.3,2.1l5.3,9.3l5.4-2.9l3.4-5.4
	L672.1,268.1z"/>
<rect x="365.5" y="115.1" transform="matrix(0.4977 -0.8673 0.8673 0.4977 27.6109 408.04)" class="st1" width="1.3" height="130.1"/>
<rect x="301" y="179.5" transform="matrix(0.8674 -0.4977 0.4977 0.8674 -41.1118 206.0979)" class="st1" width="130.1" height="1.3"/>
<rect x="589.6" y="171" transform="matrix(0.7071 -0.7071 0.7071 0.7071 33.6869 475.0388)" class="st1" width="1.3" height="51.7"/>
<rect x="564.4" y="196.2" transform="matrix(0.7071 -0.7071 0.7071 0.7071 33.6869 475.0388)" class="st1" width="51.7" height="1.3"/>
</svg>
